Coordinates
version=1
nRows=19
nColumns=24
inDegrees=yes

Units are S.I. units (second, meters, Newtons, ...)
Angles are in degrees.

endheader
time	pelvis_tilt	pelvis_list	pelvis_rotation	pelvis_tx	pelvis_ty	pelvis_tz	hip_flexion_r	hip_adduction_r	hip_rotation_r	knee_angle_r	ankle_angle_r	subtalar_angle_r	mtp_angle_r	hip_flexion_l	hip_adduction_l	hip_rotation_l	knee_angle_l	ankle_angle_l	subtalar_angle_l	mtp_angle_l	lumbar_extension	lumbar_bending	lumbar_rotation
      2.69000000	      8.11890823	     -6.13463550	     -7.80179537	      1.11935903	      0.98422499	      0.03658554	    -18.87348690	     -3.75379537	     -8.17646892	    -37.85770602	    -11.27939354	      6.19392875	     26.87123592	     14.03548393	     -6.80952414	    -24.23642255	    -22.23011838	     -7.44302847	    -14.21387357	      8.50602144	    -19.94279594	     11.28416988	     50.48616818
      2.69500000	      8.15124173	     -6.15540103	     -7.47780021	      1.12610743	      0.98544439	      0.03544251	    -18.16995896	     -3.74714141	     -8.11153144	    -39.33623927	    -11.73611926	      5.85541554	     23.23830925	     13.63518121	     -6.65375166	    -24.04219794	    -22.24930492	     -7.00544649	    -14.00308594	      7.54448500	    -19.92966790	     11.36522036	     50.24985504
      2.70000000	      8.14374343	     -6.20405684	     -7.10855328	      1.13284595	      0.98658881	      0.03425180	    -17.42832982	     -3.67866864	     -8.08026060	    -40.71944581	    -12.42761885	      5.21656854	     22.81269200	     13.28435610	     -6.51849680	    -23.72955685	    -22.25656943	     -6.65287720	    -13.96398056	      7.52097789	    -19.85169971	     11.49738475	     49.90944374
      2.70500000	      8.17249386	     -6.23818263	     -6.77245512	      1.13951442	      0.98785176	      0.03311591	    -16.67733134	     -3.63701403	     -8.04135164	    -42.16334525	    -12.55483049	      4.92677239	     19.07642340	     12.86314551	     -6.37926941	    -23.51168980	    -22.21841400	     -6.24197207	    -13.73252093	      6.52349646	    -19.83624652	     11.60503618	     49.64642914
      2.71000000	      8.18268700	     -6.31426459	     -6.41395662	      1.14611331	      0.98906330	      0.03199175	    -15.90753505	     -3.52655856	     -8.01892487	    -43.50788151	    -12.90639215	      4.34648833	     18.62010169	     12.48028860	     -6.28898643	    -23.22153374	    -22.20803906	     -5.88963975	    -13.68488156	      6.47853464	    -19.79922238	     11.76730117	     49.35526672
      2.71500000	      8.19281278	     -6.36024863	     -6.09068716	      1.15269432	      0.99032809	      0.03090869	    -15.10573230	     -3.45641790	     -7.98849774	    -44.87476540	    -12.70411033	      4.12750698	     15.46453657	     12.05467235	     -6.17313009	    -22.99597993	    -22.12495866	     -5.48395392	    -13.46860056	      5.56661591	    -19.76050637	     11.89085878	     49.06161466
      2.72000000	      8.19165783	     -6.42411692	     -5.74580651	      1.15920314	      0.99157245	      0.02981512	    -14.28604591	     -3.35787589	     -8.01223143	    -46.14939441	    -12.76875535	      3.71716789	     15.32392550	     11.64756198	     -6.08019077	    -22.74431537	    -22.03627625	     -5.22732702	    -13.35419475	      5.57542110	    -19.71401698	     12.04645849	     48.77120146
      2.72500000	      8.22160519	     -6.51228241	     -5.40762384	      1.16568849	      0.99289069	      0.02876295	    -13.48926975	     -3.22813204	     -8.03664444	    -47.39479650	    -12.39175132	      3.47108718	     12.91361112	     11.18791628	     -6.01484735	    -22.49462592	    -21.92053226	     -4.81608630	    -13.14326519	      4.70321268	    -19.70705024	     12.22752657	     48.52587476
      2.73000000	      8.23645749	     -6.58040295	     -5.07566407	      1.17214763	      0.99418592	      0.02770777	    -12.67087344	     -3.13028010	     -8.11674661	    -48.55282400	    -12.17929839	      3.18779297	     12.87838184	     10.73618589	     -5.93455478	    -22.26689922	    -21.78201386	     -4.57997925	    -13.01265095	      4.71917144	    -19.67798477	     12.39161106	     48.24435422
      2.73500000	      8.26059551	     -6.66840298	     -4.73963906	      1.17854142	      0.99550398	      0.02668145	    -11.85483205	     -3.00581327	     -8.22132112	    -49.64156033	    -11.86336653	      2.91623242	     12.80831208	     10.26552710	     -5.87940442	    -22.03429388	    -21.61593143	     -4.34164290	    -12.87141736	      4.69622418	    -19.67144424	     12.57906183	     47.98852220
      2.74000000	      8.27976979	     -6.76525270	     -4.40436825	      1.18491348	      0.99682632	      0.02567039	    -11.02606426	     -2.87392025	     -8.36423171	    -50.67970903	    -11.27409996	      2.79140478	     11.18223517	      9.79058190	     -5.83908592	    -21.80142605	    -21.44188082	     -3.93246729	    -12.60691752	      3.59618673	    -19.66170839	     12.78212393	     47.75489740
      2.74500000	      8.33439368	     -6.85420649	     -4.07867126	      1.19124827	      0.99819428	      0.02466939	    -10.24052349	     -2.76370006	     -8.53712865	    -51.60749508	    -10.76321382	      2.67096814	     11.25273970	      9.25945731	     -5.79081769	    -21.60480026	    -21.21394652	     -3.74029576	    -12.46020217	      3.62211602	    -19.69353751	     12.97966639	     47.55995553
      2.75000000	      8.35787433	     -6.95149168	     -3.75800397	      1.19755115	      0.99951705	      0.02372164	     -9.41534681	     -2.64209436	     -8.74059153	    -52.46419445	    -10.20830263	      2.56118924	     11.32796357	      8.76503660	     -5.76879653	    -21.43694799	    -20.99704418	     -3.54696343	    -12.28551496	      3.63217973	    -19.69170733	     13.18067739	     47.32281789
      2.75500000	      8.39080540	     -7.05065929	     -3.42868855	      1.20381274	      1.00083451	      0.02278346	     -8.60278758	     -2.52227153	     -8.98986330	    -53.22794687	     -9.61119415	      2.49431356	     11.41815985	      8.25676707	     -5.75268272	    -21.26325254	    -20.76702447	     -3.35298974	    -12.09183825	      3.62622268	    -19.69818434	     13.38706579	     47.08846967
      2.76000000	      8.38828653	     -7.15745620	     -3.09123094	      1.21002737	      1.00208108	      0.02183853	     -7.74810021	     -2.39507389	     -9.26773137	    -53.91311141	     -8.99851244	      2.49277634	     11.53206947	      7.79765415	     -5.75611710	    -21.08011613	    -20.55561374	     -3.10989709	    -11.82393816	      3.55769058	    -19.65199932	     13.60954120	     46.76587194
      2.76500000	      8.44332169	     -7.25420715	     -2.78243307	      1.21622926	      1.00341054	      0.02094307	     -6.96492504	     -2.29510404	     -9.57226747	    -54.49483104	     -8.30101401	      2.47106908	     11.66606093	      7.24976352	     -5.74884704	    -20.96033064	    -20.28729023	     -2.96544430	    -11.63825845	      3.52249462	    -19.69231625	     13.82005903	     46.60368474
      2.77000000	      8.44484633	     -7.35070660	     -2.45469152	      1.22243184	      1.00462217	      0.02003064	     -6.13449961	     -2.19715213	     -9.92097106	    -54.98065407	     -7.61048965	      2.55419565	     11.86494634	      6.76783839	     -5.75202887	    -20.82780554	    -20.04021316	     -2.71434710	    -11.34431738	      3.42796878	    -19.65134610	     14.03518634	     46.30670362
      2.77500000	      8.49381299	     -7.44388102	     -2.14588266	      1.22859031	      1.00589981	      0.01917517	     -5.36480837	     -2.11067948	    -10.28214290	    -55.34350832	     -7.04776606	      2.56462125	     13.16665177	      6.22338752	     -5.75826818	    -20.72698002	    -19.77885257	     -2.31878493	    -10.91845952	      1.94201047	    -19.68151628	     14.24172945	     46.11300779
      2.78000000	      8.51029324	     -7.53721615	     -1.82622853	      1.23471154	      1.00707889	      0.01833136	     -4.55879230	     -2.02056295	    -10.67348291	    -55.64906363	     -6.31628098	      2.60135348	     13.35595296	      5.72259399	     -5.77217164	    -20.62185049	    -19.51184536	     -2.14762728	    -10.66035095	      1.97561729	    -19.66212243	     14.45113460	     45.85730048
